<svg width="800" height="600" viewBox="0 0 800 600" xmlns="http://www.w3.org/2000/svg">
  <defs>
    <linearGradient id="headerGradient" x1="0%" y1="0%" x2="100%" y2="100%">
      <stop offset="0%" stop-color="#6e45e2"/>
      <stop offset="100%" stop-color="#89d4cf"/>
    </linearGradient>
    <linearGradient id="buttonGradient" x1="0%" y1="0%" x2="100%" y2="100%">
      <stop offset="0%" stop-color="#6e45e2"/>
      <stop offset="100%" stop-color="#89d4cf"/>
    </linearGradient>
  </defs>
  
  <!-- Background -->
  <rect width="800" height="600" fill="#f8f9fa"/>
  
  <!-- Header section -->
  <rect width="800" height="200" fill="url(#headerGradient)"/>
  
  <!-- Profile image placeholder -->
  <circle cx="200" cy="100" r="60" fill="#fff" stroke="#fff" stroke-width="4"/>
  <circle cx="200" cy="100" r="30" fill="#eee"/>
  
  <!-- Header text placeholders -->
  <rect x="300" y="60" width="250" height="25" rx="4" fill="#fff"/>
  <rect x="300" y="95" width="400" height="10" rx="4" fill="#fff" opacity="0.8"/>
  <rect x="300" y="115" width="380" height="10" rx="4" fill="#fff" opacity="0.8"/>
  <rect x="300" y="135" width="360" height="10" rx="4" fill="#fff" opacity="0.8"/>
  
  <!-- Contact buttons -->
  <rect x="300" y="160" width="120" height="30" rx="15" fill="#fff"/>
  <rect x="430" y="160" width="100" height="30" rx="15" fill="transparent" stroke="#fff" stroke-width="2"/>
  
  <!-- Projects section -->
  <text x="400" y="240" font-family="Arial" font-size="24" fill="url(#headerGradient)" text-anchor="middle" font-weight="bold">My Projects</text>
  
  <!-- Project cards with shadow effect -->
  <rect x="50" y="270" width="220" height="250" rx="8" fill="#fff" filter="drop-shadow(0px 4px 6px rgba(0, 0, 0, 0.1))"/>
  <rect x="50" y="270" width="220" height="130" rx="8" fill="#eee"/>
  <rect x="50" y="410" width="160" height="15" rx="4" fill="#333"/>
  <rect x="50" y="435" width="200" height="8" rx="4" fill="#666"/>
  <rect x="50" y="450" width="190" height="8" rx="4" fill="#666"/>
  <rect x="50" y="465" width="180" height="8" rx="4" fill="#666"/>
  <rect x="50" y="490" width="60" height="20" rx="10" fill="url(#buttonGradient)"/>
  
  <rect x="290" y="270" width="220" height="250" rx="8" fill="#fff" filter="drop-shadow(0px 4px 6px rgba(0, 0, 0, 0.1))"/>
  <rect x="290" y="270" width="220" height="130" rx="8" fill="#eee"/>
  <rect x="290" y="410" width="160" height="15" rx="4" fill="#333"/>
  <rect x="290" y="435" width="200" height="8" rx="4" fill="#666"/>
  <rect x="290" y="450" width="190" height="8" rx="4" fill="#666"/>
  <rect x="290" y="465" width="180" height="8" rx="4" fill="#666"/>
  <rect x="290" y="490" width="60" height="20" rx="10" fill="url(#buttonGradient)"/>
  
  <rect x="530" y="270" width="220" height="250" rx="8" fill="#fff" filter="drop-shadow(0px 4px 6px rgba(0, 0, 0, 0.1))"/>
  <rect x="530" y="270" width="220" height="130" rx="8" fill="#eee"/>
  <rect x="530" y="410" width="160" height="15" rx="4" fill="#333"/>
  <rect x="530" y="435" width="200" height="8" rx="4" fill="#666"/>
  <rect x="530" y="450" width="190" height="8" rx="4" fill="#666"/>
  <rect x="530" y="465" width="180" height="8" rx="4" fill="#666"/>
  <rect x="530" y="490" width="60" height="20" rx="10" fill="url(#buttonGradient)"/>
  
  <!-- Footer -->
  <rect y="550" width="800" height="50" fill="url(#headerGradient)"/>
  <rect x="300" y="570" width="200" height="10" rx="4" fill="#fff"/>
</svg> 