<svg width="800" height="600" viewBox="0 0 800 600" xmlns="http://www.w3.org/2000/svg">
  <rect width="800" height="600" fill="#121212"/>
  
  <!-- Header section -->
  <rect width="800" height="200" fill="#000000"/>
  
  <!-- Profile image placeholder -->
  <circle cx="200" cy="100" r="60" fill="#333" stroke="#0D6EFD" stroke-width="4"/>
  <circle cx="200" cy="100" r="30" fill="#444"/>
  
  <!-- Header text placeholders -->
  <rect x="300" y="60" width="250" height="20" rx="4" fill="#0D6EFD"/>
  <rect x="300" y="90" width="400" height="10" rx="4" fill="#888"/>
  <rect x="300" y="110" width="380" height="10" rx="4" fill="#888"/>
  <rect x="300" y="130" width="360" height="10" rx="4" fill="#888"/>
  
  <!-- Contact buttons -->
  <rect x="300" y="160" width="120" height="25" rx="4" fill="transparent" stroke="#fff" stroke-width="2"/>
  <rect x="440" y="160" width="80" height="25" rx="4" fill="#0D6EFD"/>
  
  <!-- Projects section -->
  <rect y="220" width="800" height="30" fill="#121212"/>
  <rect x="300" y="225" width="200" height="20" rx="4" fill="#0D6EFD"/>
  
  <!-- Project cards -->
  <rect x="50" y="270" width="220" height="260" rx="4" fill="#222" stroke="#0D6EFD" stroke-width="2"/>
  <rect x="50" y="270" width="220" height="130" fill="#333"/>
  <rect x="50" y="410" width="160" height="15" rx="4" fill="#0D6EFD"/>
  <rect x="50" y="435" width="200" height="8" rx="4" fill="#666"/>
  <rect x="50" y="450" width="190" height="8" rx="4" fill="#666"/>
  <rect x="50" y="465" width="180" height="8" rx="4" fill="#666"/>
  <rect x="50" y="490" width="60" height="20" rx="4" fill="#0D6EFD"/>
  
  <rect x="290" y="270" width="220" height="260" rx="4" fill="#222" stroke="#0D6EFD" stroke-width="2"/>
  <rect x="290" y="270" width="220" height="130" fill="#333"/>
  <rect x="290" y="410" width="160" height="15" rx="4" fill="#0D6EFD"/>
  <rect x="290" y="435" width="200" height="8" rx="4" fill="#666"/>
  <rect x="290" y="450" width="190" height="8" rx="4" fill="#666"/>
  <rect x="290" y="465" width="180" height="8" rx="4" fill="#666"/>
  <rect x="290" y="490" width="60" height="20" rx="4" fill="#0D6EFD"/>
  
  <rect x="530" y="270" width="220" height="260" rx="4" fill="#222" stroke="#0D6EFD" stroke-width="2"/>
  <rect x="530" y="270" width="220" height="130" fill="#333"/>
  <rect x="530" y="410" width="160" height="15" rx="4" fill="#0D6EFD"/>
  <rect x="530" y="435" width="200" height="8" rx="4" fill="#666"/>
  <rect x="530" y="450" width="190" height="8" rx="4" fill="#666"/>
  <rect x="530" y="465" width="180" height="8" rx="4" fill="#666"/>
  <rect x="530" y="490" width="60" height="20" rx="4" fill="#0D6EFD"/>
  
  <!-- Footer -->
  <rect y="550" width="800" height="50" fill="#000000" stroke="#0D6EFD" stroke-width="2" stroke-opacity="0.5"/>
  <rect x="300" y="565" width="200" height="10" rx="4" fill="#888"/>
</svg> 