<svg width="800" height="600" viewBox="0 0 800 600" xmlns="http://www.w3.org/2000/svg">
  <!-- Background -->
  <rect width="800" height="600" fill="#ffffff"/>
  
  <!-- Header section -->
  <rect width="800" height="180" fill="#ffffff"/>
  
  <!-- Profile image placeholder -->
  <circle cx="200" cy="90" r="60" fill="#f8f8f8" stroke="#eee" stroke-width="1"/>
  <circle cx="200" cy="90" r="30" fill="#f0f0f0"/>
  
  <!-- Header text placeholders -->
  <rect x="300" y="60" width="250" height="20" rx="1" fill="#333"/>
  <rect x="300" y="90" width="400" height="8" rx="1" fill="#bbb"/>
  <rect x="300" y="105" width="380" height="8" rx="1" fill="#bbb"/>
  <rect x="300" y="120" width="360" height="8" rx="1" fill="#bbb"/>
  
  <!-- Contact buttons -->
  <rect x="300" y="145" width="100" height="25" rx="2" fill="transparent" stroke="#333" stroke-width="1"/>
  <rect x="410" y="145" width="100" height="25" rx="2" fill="transparent" stroke="#333" stroke-width="1"/>
  
  <!-- Divider -->
  <line x1="50" y1="200" x2="750" y2="200" stroke="#eee" stroke-width="1"/>
  
  <!-- Projects section -->
  <text x="400" y="240" font-family="Arial" font-size="18" fill="#333" text-anchor="middle" font-weight="300">My Projects</text>
  
  <!-- Project cards - very minimal -->
  <rect x="50" y="270" width="220" height="230" rx="0" fill="#fff"/>
  <rect x="50" y="270" width="220" height="120" rx="2" fill="#f8f8f8"/>
  <rect x="50" y="400" width="140" height="15" rx="1" fill="#333"/>
  <rect x="50" y="425" width="200" height="8" rx="1" fill="#bbb"/>
  <rect x="50" y="440" width="190" height="8" rx="1" fill="#bbb"/>
  <rect x="50" y="455" width="180" height="8" rx="1" fill="#bbb"/>
  <rect x="50" y="480" width="60" height="20" rx="2" fill="transparent" stroke="#333" stroke-width="1"/>
  
  <rect x="290" y="270" width="220" height="230" rx="0" fill="#fff"/>
  <rect x="290" y="270" width="220" height="120" rx="2" fill="#f8f8f8"/>
  <rect x="290" y="400" width="140" height="15" rx="1" fill="#333"/>
  <rect x="290" y="425" width="200" height="8" rx="1" fill="#bbb"/>
  <rect x="290" y="440" width="190" height="8" rx="1" fill="#bbb"/>
  <rect x="290" y="455" width="180" height="8" rx="1" fill="#bbb"/>
  <rect x="290" y="480" width="60" height="20" rx="2" fill="transparent" stroke="#333" stroke-width="1"/>
  
  <rect x="530" y="270" width="220" height="230" rx="0" fill="#fff"/>
  <rect x="530" y="270" width="220" height="120" rx="2" fill="#f8f8f8"/>
  <rect x="530" y="400" width="140" height="15" rx="1" fill="#333"/>
  <rect x="530" y="425" width="200" height="8" rx="1" fill="#bbb"/>
  <rect x="530" y="440" width="190" height="8" rx="1" fill="#bbb"/>
  <rect x="530" y="455" width="180" height="8" rx="1" fill="#bbb"/>
  <rect x="530" y="480" width="60" height="20" rx="2" fill="transparent" stroke="#333" stroke-width="1"/>
  
  <!-- Divider -->
  <line x1="50" y1="520" x2="750" y2="520" stroke="#eee" stroke-width="1"/>
  
  <!-- Contact section - minimalist -->
  <text x="400" y="550" font-family="Arial" font-size="16" fill="#333" text-anchor="middle" font-weight="300">Get In Touch</text>
  <rect x="350" y="565" width="100" height="25" rx="2" fill="#333"/>
  
  <!-- Footer -->
  <rect x="300" y="580" width="200" height="8" rx="1" fill="#bbb"/>
</svg> 